<?xml version="1.0" encoding="utf-8"?>
<!-- Uploaded to: SVG Repo, www.svgrepo.com, Generator: SVG Repo Mixer Tools -->
<svg fill="#000000" width="800px" height="800px" viewBox="0 0 32 32" version="1.1" xmlns="http://www.w3.org/2000/svg">
<title>battery3</title>
<path d="M28 19c-0.553 0-1 0-1 0v1c0 1.104-0.895 2-2 2h-20c-1.105 0-2-0.896-2-2v-7c0-1.104 0.895-2 2-2h20c1.105 0 2 0.896 2 2v1c0 0 0.447 0 1 0s1 0.447 1 1v3c0 0.552-0.447 1-1 1zM26 13c0-0.553-0.447-1-1-1h-20c-0.553 0-1 0.447-1 1v7c0 0.552 0.447 1 1 1h20c0.553 0 1-0.448 1-1v-7z"></path>
</svg>