<?xml version="1.0" encoding="utf-8"?>
<!-- Uploaded to: SVG Repo, www.svgrepo.com, Generator: SVG Repo Mixer Tools -->
<svg fill="#000000" width="800px" height="800px" viewBox="0 0 32 32" version="1.1" xmlns="http://www.w3.org/2000/svg">
<title>signal-strong</title>
<path d="M2 24.75c-0.69 0-1.25 0.56-1.25 1.25v4c0 0.69 0.56 1.25 1.25 1.25s1.25-0.56 1.25-1.25v0-4c-0-0.69-0.56-1.25-1.25-1.25h-0zM8.968 18.75c-0.69 0-1.25 0.56-1.25 1.25v10c0 0.69 0.56 1.25 1.25 1.25s1.25-0.56 1.25-1.25v0-10c-0-0.69-0.56-1.25-1.25-1.25h-0zM16 12.75c-0.69 0-1.25 0.56-1.25 1.25v0 16c0 0.69 0.56 1.25 1.25 1.25s1.25-0.56 1.25-1.25v0-16c0-0.69-0.56-1.25-1.25-1.25v0zM23 6.749c-0.69 0-1.25 0.56-1.25 1.25v22.001c0 0.69 0.56 1.25 1.25 1.25s1.25-0.56 1.25-1.25v0-22.001c-0-0.69-0.56-1.25-1.25-1.25h-0z"></path>
</svg>